<?xml version="1.0" encoding="utf-8"?>
<!-- Generator: Adobe Illustrator 22.1.0, SVG Export Plug-In . SVG Version: 6.00 Build 0)  -->
<svg version="1.1" id="Layer_1" xmlns="http://www.w3.org/2000/svg" xmlns:xlink="http://www.w3.org/1999/xlink" x="0px" y="0px"
	 viewBox="0 0 50 65" style="enable-background:new 0 0 50 65;" xml:space="preserve">
<path d="M32,2.5c8.6,0,15.5,6.9,15.5,15.5v42c0,1.4-1.1,2.5-2.5,2.5H5c-1.4,0-2.5-1.1-2.5-2.5V5c0-1.4,1.1-2.5,2.5-2.5H32 M32,0.5H5
	c-2.5,0-4.5,2-4.5,4.5c0,0,0,0,0,0v55c0,2.5,2,4.5,4.5,4.5c0,0,0,0,0,0h40c2.5,0,4.5-2,4.5-4.5c0,0,0,0,0,0V18
	C49.5,8.3,41.7,0.5,32,0.5z"/>
<path d="M48.5,17H35.2c-2,0-3.7-1.6-3.7-3.6V1.5h2v11.9c0,0.9,0.7,1.6,1.7,1.6h13.3V17z"/>
<path d="M45.8,38.6c-1.3-1.4-3.9-2.2-7.6-2.2c-2.3,0-4.5,0.2-6.7,0.7c-1.5-1.5-2.9-3.1-4.1-4.9c-0.9-1.3-1.8-2.7-2.5-4.1
	c1.3-3.5,2-7.2,2.2-10.9c0-3-1.1-6.1-4.2-6.1c-1,0-1.9,0.6-2.4,1.4C19,15,19.6,20.5,22,26c-0.9,2.7-1.9,5.3-3,8.3
	c-1,2.5-2.2,5-3.4,7.3c-7,2.8-11.5,6.2-12,8.8c-0.2,1,0.2,1.9,0.9,2.6C5.1,53.6,6,54,7,54c4.6,0,9.5-7.7,12-12.3
	c1.9-0.6,3.8-1.2,5.7-1.8c2-0.6,4.1-1,6.1-1.4c4.9,4.5,9.2,5.2,11.4,5.2c2.7,0,3.6-1.1,4-2C46.7,40.7,46.5,39.5,45.8,38.6L45.8,38.6
	L45.8,38.6z M43.4,40.5c-0.3,1.1-1.4,1.8-2.5,1.6c-0.4,0-0.7,0-1.1-0.1c-2.6-0.7-5-2-7-3.8c1.8-0.3,3.6-0.5,5.3-0.5
	c1.1,0,2.2,0.1,3.2,0.3C42.3,38.2,43.7,38.8,43.4,40.5L43.4,40.5L43.4,40.5z M29.9,37.4c-1.6,0.3-3.4,0.7-5.3,1.2
	c-1.5,0.4-3,0.8-4.5,1.4c0.8-1.6,1.5-3.2,2.2-4.7c0.8-1.8,1.4-3.7,2-5.5c0.6,1.1,1.3,2.2,2,3.2C27.3,34.6,28.5,36.1,29.9,37.4
	L29.9,37.4L29.9,37.4z M21.5,13.2c0.2-0.5,0.7-0.8,1.2-0.8c1.3,0,1.6,1.6,1.6,2.8c-0.2,3-0.8,6-1.7,8.9
	C20.7,19.1,20.6,14.8,21.5,13.2L21.5,13.2z M14.5,43.5c-3.2,5.5-6.4,8.9-8.3,8.9c-0.4,0-0.7-0.1-1-0.3c-0.4-0.3-0.6-0.9-0.4-1.4
	C5.2,48.7,8.8,46,14.5,43.5L14.5,43.5z"/>
</svg>
