<svg xmlns="http://www.w3.org/2000/svg" viewBox="0 0 100 100">

	<defs>
		<style>.a{fill:#2365af;}</style>
	</defs>

	<title>af-svg-tempArtboard 132</title>

	<path class="a" d="M70.75,19A15.52,15.52,0,1,1,55.23,3.44,15.52,15.52,0,0,1,70.75,19ZM61.24,96.51s0-19.72.32-33.4c0,0,0-27.36-32.31-27.36C6.45,35.75.75,54.78.75,65,.75,82.83,9,97.47,35.91,96.51V73.61s-13.31,4.45-13.31-7c0-3.82,2.54-8.27,8.87-8.27s7.6,7,7.6,7.63V96.51Zm5.7,0c8.24,0,15,.11,22.75,0l.06-23.91h9.5V49.85H89.11s-1.26-12,10.14-12V15.16C77.08,15.16,67.58,29,67.58,41,67.58,58.05,66.94,96.31,66.94,96.52Z"/>

</svg>